<svg width="32" height="25" viewBox="0 0 32 25" fill="none" xmlns="http://www.w3.org/2000/svg">
<path opacity="0.5" fill-rule="evenodd" clip-rule="evenodd" d="M26.975 24.3306C29.7501 24.3306 31.9998 22.0809 31.9998 19.3058C31.9998 16.5307 29.7501 14.281 26.975 14.281C24.1999 14.281 21.9502 16.5307 21.9502 19.3058C21.9502 22.0809 24.1999 24.3306 26.975 24.3306ZM30.0842 18.4535C30.3579 18.1419 30.346 17.667 30.0485 17.3696L30.0104 17.3339C29.6988 17.0602 29.2239 17.0721 28.9265 17.3696L26.5369 19.7591L25.2435 18.6505L25.2044 18.619C24.8726 18.3687 24.399 18.4167 24.1248 18.7366C23.8396 19.0693 23.8782 19.5701 24.2108 19.8553L26.0621 21.4421L26.1022 21.4743C26.4157 21.7099 26.8585 21.6816 27.1394 21.4007L30.0485 18.4916L30.0842 18.4535Z" fill="#00C7E6"/>
<path opacity="0.5" d="M25.0974 7.16174C25.7547 7.16174 26.2875 7.69456 26.2875 8.35183C26.2875 8.99031 25.7847 9.51136 25.1534 9.54061L25.0974 9.54191H14.7833C14.1261 9.54191 13.5933 9.00909 13.5933 8.35183C13.5933 7.71334 14.0961 7.19229 14.7273 7.16304L14.7833 7.16174H25.0974Z" fill="#00C7E6"/>
<path opacity="0.5" d="M19.8081 12.4509C20.4654 12.4509 20.9982 12.9837 20.9982 13.641C20.9982 14.2795 20.4954 14.8005 19.8642 14.8298L19.8081 14.8311H14.7833C14.1261 14.8311 13.5933 14.2983 13.5933 13.641C13.5933 13.0025 14.0961 12.4815 14.7273 12.4522L14.7833 12.4509H19.8081Z" fill="#00C7E6"/>
<path fill-rule="evenodd" clip-rule="evenodd" d="M3.17355 0C1.42085 0 0 1.42085 0 3.17355V18.7769C0 20.5296 1.42085 21.9504 3.17355 21.9504H22.7019C22.2255 21.1823 21.9504 20.2762 21.9504 19.3058C21.9504 16.5307 24.2001 14.281 26.9752 14.281C27.9456 14.281 28.8517 14.5561 29.6198 15.0325V3.17356C29.6198 1.42085 28.199 0 26.4463 0H3.17355ZM4.7603 16.7366H9.52063C10.573 16.7366 11.4261 15.8835 11.4261 14.8312V13.8874C11.4261 12.0421 9.87756 10.5344 8.01881 10.5344H6.1722C4.3248 10.5344 2.85484 12.031 2.85484 13.8874V14.8312C2.85484 15.8835 3.70794 16.7366 4.7603 16.7366ZM7.14048 4.97057C5.796 4.97057 4.7061 6.06047 4.7061 7.40495C4.7061 8.74942 5.796 9.83933 7.14048 9.83933C8.48495 9.83933 9.57486 8.74942 9.57486 7.40495C9.57486 6.06047 8.48495 4.97057 7.14048 4.97057ZM26.2876 8.35178C26.2876 7.69452 25.7547 7.1617 25.0975 7.1617H14.7834L14.7274 7.16299C14.0962 7.19225 13.5933 7.7133 13.5933 8.35178C13.5933 9.00905 14.1262 9.54186 14.7834 9.54186H25.0975L25.1535 9.54057C25.7848 9.51132 26.2876 8.99027 26.2876 8.35178ZM19.8082 12.4509C20.4655 12.4509 20.9983 12.9838 20.9983 13.641C20.9983 14.2795 20.4955 14.8006 19.8642 14.8298L19.8082 14.8311H14.7834C14.1262 14.8311 13.5933 14.2983 13.5933 13.641C13.5933 13.0025 14.0962 12.4815 14.7274 12.4522L14.7834 12.4509H19.8082Z" fill="#00C7E6"/>
</svg>
