<svg width="32" height="36" viewBox="0 0 32 36" fill="none" xmlns="http://www.w3.org/2000/svg">
<path fill-rule="evenodd" clip-rule="evenodd" d="M11.9612 12.417H20.1944V18.3309H11.9612V12.417ZM9.16505 21.127V26.7192H0V21.127H9.16505ZM9.16505 35.4182V29.5153H0V31.6903C0 33.7494 1.66915 35.4185 3.72815 35.4185H28.2718C30.3308 35.4185 32 33.7494 32 31.6903V29.5153H22.9905V35.4182H20.1944V29.5153H11.9612V35.4182H9.16505ZM32 21.127V26.7192H22.9905V21.127H32ZM20.1944 21.127V26.7192H11.9612V21.127H20.1944ZM9.16505 18.3309V12.417H0V18.3309H9.16505ZM32 18.3309V12.417H22.9905V18.3309H32Z" fill="#8777D9"/>
<path opacity="0.5" fill-rule="evenodd" clip-rule="evenodd" d="M0 12.4171H32V7.69873C32 5.63973 30.3308 3.97058 28.2718 3.97058H3.72815C1.66915 3.97058 0 5.63973 0 7.69874V12.4171Z" fill="#8777D9"/>
<path d="M22.835 5.74757C22.835 6.5197 22.209 7.14563 21.4369 7.14563C20.6868 7.14563 20.0747 6.55496 20.0404 5.81339L20.0388 5.74757V1.39806C20.0388 0.625932 20.6648 0 21.4369 0C22.187 0 22.7991 0.590675 22.8334 1.33225L22.835 1.39806V5.74757Z" fill="#8777D9"/>
<path d="M11.9614 5.74757C11.9614 6.5197 11.3355 7.14563 10.5634 7.14563C9.8133 7.14563 9.2012 6.55496 9.16683 5.81339L9.16531 5.74757V1.39806C9.16531 0.625932 9.79124 0 10.5634 0C11.3134 0 11.9255 0.590675 11.9599 1.33225L11.9614 1.39806L11.9614 5.74757Z" fill="#8777D9"/>
</svg>
